<svg xmlns="http://www.w3.org/2000/svg" width="980" height="718" viewBox="0 0 980 718" font-family="Arial, Helvetica, sans-serif">
  <defs>
    <marker id="arrow" viewBox="0 0 10 10" refX="8" refY="5" markerWidth="7" markerHeight="7" orient="auto-start-reverse">
      <path d="M1 1L9 5L1 9Z" fill="#3A6EA5"/>
    </marker>
  </defs>
  <rect width="980" height="718" fill="#FFFFFF"/>
  <text x="490.0" y="34" text-anchor="middle" font-size="19" font-weight="700" fill="#111111" font-family="Arial, Helvetica, sans-serif">Data Lineage</text>
  <text x="490.0" y="54" text-anchor="middle" font-size="12" fill="#888888" font-style="italic" font-family="Arial, Helvetica, sans-serif">DATSCI7030 — raw sources to models &amp; reports</text>
  <line x1="30" y1="66" x2="950" y2="66" stroke="#CCCCCC" stroke-width="0.8"/>
  <text x="380.0" y="80" text-anchor="middle" font-size="13" font-weight="700" fill="#111111">Raw Data (data/raw/)</text>
  <rect x="30" y="90" width="163.0" height="56" rx="9" fill="#EEF3F8" stroke="#3A6EA5" stroke-width="1.4"/>
  <text x="111.5" y="123.0" text-anchor="middle" font-size="11.5" font-weight="700" fill="#111111">prices.parquet</text>
  <rect x="209.0" y="90" width="163.0" height="56" rx="9" fill="#EEF3F8" stroke="#3A6EA5" stroke-width="1.4"/>
  <text x="290.5" y="123.0" text-anchor="middle" font-size="11.5" font-weight="700" fill="#111111">macro_indicators.parquet</text>
  <rect x="388.0" y="90" width="163.0" height="56" rx="9" fill="#EEF3F8" stroke="#3A6EA5" stroke-width="1.4"/>
  <text x="469.5" y="123.0" text-anchor="middle" font-size="11.5" font-weight="700" fill="#111111">fomc_dates.parquet</text>
  <rect x="567.0" y="90" width="163.0" height="56" rx="9" fill="#EEF3F8" stroke="#3A6EA5" stroke-width="1.4"/>
  <text x="648.5" y="123.0" text-anchor="middle" font-size="9.5" font-weight="700" fill="#111111">app_presidential_documents.parquet</text>
  <rect x="90.0" y="216" width="260" height="56" rx="9" fill="#EEF3F8" stroke="#3A6EA5" stroke-width="1.4"/>
  <text x="220.0" y="249.0" text-anchor="middle" font-size="12.5" font-weight="700" fill="#111111">events_tagged.parquet</text>
  <rect x="410.0" y="216" width="260" height="56" rx="9" fill="#EEF3F8" stroke="#3A6EA5" stroke-width="1.4"/>
  <text x="540.0" y="249.0" text-anchor="middle" font-size="12.5" font-weight="700" fill="#111111">daily_sentiment.parquet</text>
  <line x1="111.5" y1="146" x2="111.5" y2="166" stroke="#3A6EA5" stroke-width="1.6"/>
  <line x1="290.5" y1="146" x2="290.5" y2="166" stroke="#3A6EA5" stroke-width="1.6"/>
  <line x1="469.5" y1="146" x2="469.5" y2="166" stroke="#3A6EA5" stroke-width="1.6"/>
  <line x1="648.5" y1="146" x2="648.5" y2="166" stroke="#3A6EA5" stroke-width="1.6"/>
  <line x1="111.5" y1="166" x2="648.5" y2="166" stroke="#3A6EA5" stroke-width="1.6"/>
  <line x1="220.0" y1="166" x2="220.0" y2="214" stroke="#3A6EA5" stroke-width="1.8" marker-end="url(#arrow)"/>
  <line x1="540.0" y1="166" x2="540.0" y2="214" stroke="#3A6EA5" stroke-width="1.8" marker-end="url(#arrow)"/>
  <line x1="220.0" y1="272" x2="220.0" y2="294" stroke="#3A6EA5" stroke-width="1.6"/>
  <line x1="540.0" y1="272" x2="540.0" y2="294" stroke="#3A6EA5" stroke-width="1.6"/>
  <line x1="220.0" y1="294" x2="540.0" y2="294" stroke="#3A6EA5" stroke-width="1.6"/>
  <line x1="380.0" y1="294" x2="380.0" y2="326" stroke="#3A6EA5" stroke-width="1.8" marker-end="url(#arrow)"/>
  <rect x="170.0" y="328" width="420" height="54" rx="9" fill="#EEF3F8" stroke="#3A6EA5" stroke-width="1.4"/>
  <text x="380.0" y="349.0" text-anchor="middle" font-size="13.5" font-weight="700" fill="#111111">master_dataset.parquet</text>
  <text x="380.0" y="369.0" text-anchor="middle" font-size="11.5" fill="#444444">Frozen v1.0 — dataset_contract.md</text>
  <line x1="380.0" y1="382" x2="380.0" y2="428" stroke="#3A6EA5" stroke-width="1.8" marker-end="url(#arrow)"/>
  <rect x="170.0" y="428" width="420" height="50" rx="9" fill="#EEF3F8" stroke="#3A6EA5" stroke-width="1.4"/>
  <text x="380.0" y="447.0" text-anchor="middle" font-size="13" font-weight="700" fill="#111111">car_results.parquet</text>
  <text x="380.0" y="467.0" text-anchor="middle" font-size="11.5" fill="#444444">Event study CAR/CAAR output (Section 3.3)</text>
  <line x1="380.0" y1="478" x2="380.0" y2="524" stroke="#3A6EA5" stroke-width="1.8" marker-end="url(#arrow)"/>
  <rect x="170.0" y="524" width="420" height="54" rx="9" fill="#EEF3F8" stroke="#3A6EA5" stroke-width="1.4"/>
  <text x="380.0" y="545.0" text-anchor="middle" font-size="13" font-weight="700" fill="#111111">feature_matrix.parquet</text>
  <text x="380.0" y="565.0" text-anchor="middle" font-size="11.5" fill="#444444">Frozen v1.0 — FES v1.0 / feature_contract.md</text>
  <line x1="380.0" y1="578" x2="380.0" y2="624" stroke="#3A6EA5" stroke-width="1.8" marker-end="url(#arrow)"/>
  <rect x="170.0" y="624" width="420" height="54" rx="9" fill="#EEF3F8" stroke="#3A6EA5" stroke-width="1.4"/>
  <text x="380.0" y="645.0" text-anchor="middle" font-size="13" font-weight="700" fill="#111111">Models + Reports</text>
  <text x="380.0" y="665.0" text-anchor="middle" font-size="11.5" fill="#444444">Baseline &amp; event models · reports/model_comparison/</text>

  <!-- Branch: causal analysis output (Section 3.4), not consumed by feature engineering -->
  <line x1="590.0" y1="453" x2="740.0" y2="453" stroke="#7FA6C9" stroke-width="1.6" marker-end="url(#arrow)"/>
  <rect x="740.0" y="428" width="210" height="50" rx="9" fill="#EEF3F8" stroke="#3A6EA5" stroke-width="1.4"/>
  <text x="845.0" y="447.0" text-anchor="middle" font-size="12" font-weight="700" fill="#111111">causal_estimates.parquet</text>
  <text x="845.0" y="465.0" text-anchor="middle" font-size="10" fill="#444444">Per-event-type DoWhy effects (3.4)</text>
  <line x1="845.0" y1="478" x2="845.0" y2="524" stroke="#7FA6C9" stroke-width="1.6" marker-end="url(#arrow)"/>
  <rect x="740.0" y="524" width="210" height="54" rx="9" fill="#EEF3F8" stroke="#3A6EA5" stroke-width="1.4"/>
  <text x="845.0" y="545.0" text-anchor="middle" font-size="12" font-weight="700" fill="#111111">Chapter 4 — RQ1 Evidence</text>
  <text x="845.0" y="563.0" text-anchor="middle" font-size="10" fill="#444444">Abnormal-returns findings</text>
  <text x="845.0" y="600" text-anchor="middle" font-size="9" fill="#888888" font-style="italic">Not consumed by feature engineering (3.5)</text>

  <text x="490.0" y="704" text-anchor="middle" font-size="9.5" fill="#888888" font-family="Arial, Helvetica, sans-serif">DATSCI7030 — Data Lineage — Architecture v2.1 (2026-07-08, added causal_estimates.parquet branch)</text>
</svg>
