<?xml version="1.0" encoding="UTF-8"?>
<svg width="3800" height="1820" viewBox="0 0 3800 1820" xmlns="http://www.w3.org/2000/svg" style="background:#fff">

  <defs>
    <marker id="ar" viewBox="0 0 12 12" refX="10" refY="6" markerWidth="8" markerHeight="8" orient="auto-start-reverse">
      <path d="M2 2L10 6L2 10" fill="none" stroke="#888" stroke-width="1.6" stroke-linecap="round" stroke-linejoin="round"/>
    </marker>
    <marker id="ar-x" viewBox="0 0 12 12" refX="10" refY="6" markerWidth="8" markerHeight="8" orient="auto-start-reverse">
      <path d="M2 2L10 6L2 10" fill="none" stroke="#C2553A" stroke-width="1.6" stroke-linecap="round" stroke-linejoin="round"/>
    </marker>
    <pattern id="grid" width="20" height="20" patternUnits="userSpaceOnUse">
      <path d="M 20 0 L 0 0 0 20" fill="none" stroke="#f2f2f0" stroke-width="0.4"/>
    </pattern>
    <style>
      .panel-title { font-family: 'Segoe UI', system-ui, sans-serif; font-size: 15px; font-weight: 700; fill: #fff; letter-spacing: 0.5px; }
      .phase-lbl   { font-family: 'Segoe UI', system-ui, sans-serif; font-size: 10px; font-weight: 600; fill: #999; letter-spacing: 1.5px; }
      .h2          { font-family: 'Segoe UI', system-ui, sans-serif; font-size: 13px; font-weight: 600; fill: #111; }
      .badge-num   { font-family: 'Segoe UI', system-ui, sans-serif; font-size: 10px; font-weight: 700; fill: #fff; }
      .t           { font-family: 'Segoe UI', system-ui, sans-serif; font-size: 11.5px; fill: #222; }
      .ts          { font-family: 'Segoe UI', system-ui, sans-serif; font-size: 10px; fill: #555; }
      .leg         { font-family: 'Segoe UI', system-ui, sans-serif; font-size: 11.5px; fill: #333; }
      .leghead     { font-family: 'Segoe UI', system-ui, sans-serif; font-size: 13px; font-weight: 700; fill: #222; }
      .footer      { font-family: 'Segoe UI', system-ui, sans-serif; font-size: 11px; fill: #aaa; }
      .flow        { stroke: #999; stroke-width: 1; fill: none; marker-end: url(#ar); }
      .branch      { stroke: #bbb; stroke-width: 0.7; fill: none; }
      .cross       { stroke: #C2553A; stroke-width: 1.2; fill: none; stroke-dasharray: 6 4; marker-end: url(#ar-x); }
    </style>
  </defs>

  <rect width="3800" height="1820" fill="url(#grid)"/>


  <!-- ══════════════════════════════════════════════════════ -->
  <!-- PANEL HEADERS                                         -->
  <!-- ══════════════════════════════════════════════════════ -->
  <rect x="30" y="24" width="1180" height="42" rx="6" fill="#2D3142"/>
  <text class="panel-title" x="620" y="50" text-anchor="middle">DATA COLLECTION + EVENT CATALOGUE</text>
  <rect x="30" y="66" width="1180" height="1560" fill="none" stroke="#ddd" stroke-width="0.75" stroke-dasharray="6 4"/>

  <rect x="1240" y="24" width="1150" height="42" rx="6" fill="#2D3142"/>
  <text class="panel-title" x="1815" y="50" text-anchor="middle">MARKET DATA + ALIGNMENT</text>
  <rect x="1240" y="66" width="1150" height="1560" fill="none" stroke="#ddd" stroke-width="0.75" stroke-dasharray="6 4"/>

  <rect x="2420" y="24" width="1350" height="42" rx="6" fill="#2D3142"/>
  <text class="panel-title" x="3095" y="50" text-anchor="middle">MODELLING + RESULTS</text>
  <rect x="2420" y="66" width="1350" height="1560" fill="none" stroke="#ddd" stroke-width="0.75" stroke-dasharray="6 4"/>


  <!-- ══════════════════════════════════════════════════════ -->
  <!-- LEFT PANEL                                            -->
  <!-- ══════════════════════════════════════════════════════ -->

  <text class="phase-lbl" x="60" y="100">PHASE 1 — COLLECTION</text>

  <!-- L1: Institution Sources -->
  <rect x="430" y="114" width="240" height="42" rx="6" fill="#EAF0FB" stroke="#222" stroke-width="1"/>
  <circle cx="444" cy="135" r="10" fill="#3A6FA0"/><text class="badge-num" x="444" y="139" text-anchor="middle">1</text>
  <text class="h2" x="560" y="139" text-anchor="middle">Institution Sources</text>

  <!-- L1 children -->
  <rect x="60" y="200" width="210" height="76" rx="5" fill="#F6F5F1" stroke="#222" stroke-width="0.75"/>
  <text class="t" x="165" y="222" text-anchor="middle" font-weight="600">Federal Reserve</text>
  <text class="ts" x="165" y="238" text-anchor="middle">FOMC statements</text>
  <text class="ts" x="165" y="252" text-anchor="middle">Press conferences</text>
  <text class="ts" x="165" y="266" text-anchor="middle">Implementation notes</text>

  <rect x="300" y="200" width="210" height="76" rx="5" fill="#F6F5F1" stroke="#222" stroke-width="0.75"/>
  <text class="t" x="405" y="222" text-anchor="middle" font-weight="600">ECB / NewsAPI</text>
  <text class="ts" x="405" y="238" text-anchor="middle">Policy decisions</text>
  <text class="ts" x="405" y="252" text-anchor="middle">Press conference statements</text>

  <rect x="540" y="200" width="210" height="76" rx="5" fill="#F6F5F1" stroke="#222" stroke-width="0.75"/>
  <text class="t" x="645" y="222" text-anchor="middle" font-weight="600">GDELT Events</text>
  <text class="ts" x="645" y="238" text-anchor="middle">Goldstein scale events</text>
  <text class="ts" x="645" y="252" text-anchor="middle">Global news coverage</text>

  <rect x="780" y="200" width="210" height="76" rx="5" fill="#F6F5F1" stroke="#222" stroke-width="0.75"/>
  <text class="t" x="885" y="222" text-anchor="middle" font-weight="600">POTUS Sources</text>
  <text class="ts" x="885" y="238" text-anchor="middle">Presidency Project</text>
  <text class="ts" x="885" y="252" text-anchor="middle">White House archive</text>

  <line x1="460" y1="156" x2="165" y2="200" class="flow"/>
  <line x1="510" y1="156" x2="405" y2="200" class="flow"/>
  <line x1="590" y1="156" x2="645" y2="200" class="flow"/>
  <line x1="640" y1="156" x2="885" y2="200" class="flow"/>

  <!-- L2: Scrapers -->
  <rect x="430" y="318" width="240" height="42" rx="6" fill="#E4F4EC" stroke="#222" stroke-width="1"/>
  <circle cx="444" cy="339" r="10" fill="#2A7D5F"/><text class="badge-num" x="444" y="343" text-anchor="middle">2</text>
  <text class="h2" x="560" y="343" text-anchor="middle">Scrapers</text>

  <rect x="80" y="400" width="170" height="34" rx="4" fill="#F6F5F1" stroke="#222" stroke-width="0.75"/>
  <text class="t" x="165" y="421" text-anchor="middle">scrape_fomc.py</text>
  <rect x="280" y="400" width="170" height="34" rx="4" fill="#F6F5F1" stroke="#222" stroke-width="0.75"/>
  <text class="t" x="365" y="421" text-anchor="middle">src/data_collector.py</text>
  <rect x="480" y="400" width="170" height="34" rx="4" fill="#F6F5F1" stroke="#222" stroke-width="0.75"/>
  <text class="t" x="565" y="421" text-anchor="middle">NewsCollector (NewsAPI)</text>
  <rect x="680" y="400" width="190" height="34" rx="4" fill="#F6F5F1" stroke="#222" stroke-width="0.75"/>
  <text class="t" x="775" y="421" text-anchor="middle">GDELTCollector</text>

  <line x1="165" y1="276" x2="165" y2="400" class="flow"/>
  <line x1="405" y1="276" x2="365" y2="400" class="flow"/>
  <line x1="645" y1="276" x2="565" y2="400" class="flow"/>
  <line x1="885" y1="276" x2="775" y2="400" class="flow"/>

  <!-- PHASE 2 -->
  <text class="phase-lbl" x="60" y="478">PHASE 2 — STORAGE</text>

  <rect x="430" y="492" width="240" height="42" rx="6" fill="#FDF5E6" stroke="#222" stroke-width="1"/>
  <circle cx="444" cy="513" r="10" fill="#8B6914"/><text class="badge-num" x="444" y="517" text-anchor="middle">3</text>
  <text class="h2" x="560" y="517" text-anchor="middle">Raw Data Storage</text>

  <line x1="165" y1="434" x2="450" y2="492" class="flow"/>
  <line x1="365" y1="434" x2="490" y2="492" class="flow"/>
  <line x1="565" y1="434" x2="565" y2="492" class="flow"/>
  <line x1="775" y1="434" x2="640" y2="492" class="flow"/>

  <rect x="80" y="574" width="140" height="32" rx="4" fill="#F6F5F1" stroke="#222" stroke-width="0.75"/>
  <text class="t" x="150" y="594" text-anchor="middle">HTML files</text>
  <rect x="244" y="574" width="140" height="32" rx="4" fill="#F6F5F1" stroke="#222" stroke-width="0.75"/>
  <text class="t" x="314" y="594" text-anchor="middle">Extracted text</text>
  <rect x="408" y="574" width="130" height="32" rx="4" fill="#F6F5F1" stroke="#222" stroke-width="0.75"/>
  <text class="t" x="473" y="594" text-anchor="middle">Source URLs</text>
  <rect x="562" y="574" width="170" height="32" rx="4" fill="#F6F5F1" stroke="#222" stroke-width="0.75"/>
  <text class="t" x="647" y="594" text-anchor="middle">Retrieval timestamp</text>
  <rect x="756" y="574" width="170" height="32" rx="4" fill="#F6F5F1" stroke="#222" stroke-width="0.75"/>
  <text class="t" x="841" y="594" text-anchor="middle">SHA-256 manifest</text>

  <line x1="460" y1="534" x2="150" y2="574" class="branch"/>
  <line x1="490" y1="534" x2="314" y2="574" class="branch"/>
  <line x1="530" y1="534" x2="473" y2="574" class="branch"/>
  <line x1="580" y1="534" x2="647" y2="574" class="branch"/>
  <line x1="630" y1="534" x2="841" y2="574" class="branch"/>

  <!-- PHASE 3 -->
  <text class="phase-lbl" x="60" y="652">PHASE 3 — CATALOGUING</text>

  <rect x="430" y="666" width="240" height="42" rx="6" fill="#EEEDF8" stroke="#222" stroke-width="1"/>
  <circle cx="444" cy="687" r="10" fill="#534AB7"/><text class="badge-num" x="444" y="691" text-anchor="middle">4</text>
  <text class="h2" x="560" y="691" text-anchor="middle">Event Catalogue</text>

  <line x1="550" y1="534" x2="550" y2="666" class="flow"/>

  <rect x="60" y="748" width="115" height="30" rx="4" fill="#F6F5F1" stroke="#222" stroke-width="0.75"/>
  <text class="t" x="117" y="767" text-anchor="middle">event_id</text>
  <rect x="195" y="748" width="100" height="30" rx="4" fill="#F6F5F1" stroke="#222" stroke-width="0.75"/>
  <text class="t" x="245" y="767" text-anchor="middle">actor</text>
  <rect x="315" y="748" width="120" height="30" rx="4" fill="#F6F5F1" stroke="#222" stroke-width="0.75"/>
  <text class="t" x="375" y="767" text-anchor="middle">event_date</text>
  <rect x="455" y="748" width="140" height="30" rx="4" fill="#F6F5F1" stroke="#222" stroke-width="0.75"/>
  <text class="t" x="525" y="767" text-anchor="middle">timestamp_utc</text>
  <rect x="615" y="748" width="120" height="30" rx="4" fill="#F6F5F1" stroke="#222" stroke-width="0.75"/>
  <text class="t" x="675" y="767" text-anchor="middle">event_type</text>
  <rect x="755" y="748" width="130" height="30" rx="4" fill="#F6F5F1" stroke="#222" stroke-width="0.75"/>
  <text class="t" x="820" y="767" text-anchor="middle">salience_tier</text>
  <rect x="100" y="796" width="155" height="30" rx="4" fill="#F6F5F1" stroke="#222" stroke-width="0.75"/>
  <text class="t" x="177" y="815" text-anchor="middle">statement_text</text>
  <rect x="280" y="796" width="120" height="30" rx="4" fill="#F6F5F1" stroke="#222" stroke-width="0.75"/>
  <text class="t" x="340" y="815" text-anchor="middle">confirmed</text>
  <rect x="425" y="796" width="130" height="30" rx="4" fill="#F6F5F1" stroke="#222" stroke-width="0.75"/>
  <text class="t" x="490" y="815" text-anchor="middle">confounded</text>

  <line x1="450" y1="708" x2="117" y2="748" class="branch"/>
  <line x1="475" y1="708" x2="245" y2="748" class="branch"/>
  <line x1="500" y1="708" x2="375" y2="748" class="branch"/>
  <line x1="550" y1="708" x2="525" y2="748" class="branch"/>
  <line x1="600" y1="708" x2="675" y2="748" class="branch"/>
  <line x1="640" y1="708" x2="820" y2="748" class="branch"/>
  <line x1="470" y1="708" x2="177" y2="796" class="branch"/>
  <line x1="510" y1="708" x2="340" y2="796" class="branch"/>
  <line x1="550" y1="708" x2="490" y2="796" class="branch"/>

  <!-- PHASE 4 -->
  <text class="phase-lbl" x="60" y="870">PHASE 4 — VALIDATION</text>

  <rect x="430" y="884" width="240" height="42" rx="6" fill="#FAECE7" stroke="#222" stroke-width="1"/>
  <circle cx="444" cy="905" r="10" fill="#993C1D"/><text class="badge-num" x="444" y="909" text-anchor="middle">5</text>
  <text class="h2" x="560" y="909" text-anchor="middle">Validation</text>

  <line x1="550" y1="826" x2="550" y2="884" class="flow"/>

  <rect x="80" y="968" width="130" height="32" rx="4" fill="#F6F5F1" stroke="#222" stroke-width="0.75"/>
  <text class="t" x="145" y="988" text-anchor="middle">URL check</text>
  <rect x="234" y="968" width="155" height="32" rx="4" fill="#F6F5F1" stroke="#222" stroke-width="0.75"/>
  <text class="t" x="311" y="988" text-anchor="middle">word count check</text>
  <rect x="413" y="968" width="155" height="32" rx="4" fill="#F6F5F1" stroke="#222" stroke-width="0.75"/>
  <text class="t" x="490" y="988" text-anchor="middle">timestamp check</text>
  <rect x="592" y="968" width="150" height="32" rx="4" fill="#F6F5F1" stroke="#222" stroke-width="0.75"/>
  <text class="t" x="667" y="988" text-anchor="middle">duplicate check</text>
  <rect x="140" y="1020" width="200" height="32" rx="4" fill="#F6F5F1" stroke="#222" stroke-width="0.75"/>
  <text class="t" x="240" y="1040" text-anchor="middle">confounded-event flag</text>
  <rect x="370" y="1020" width="175" height="32" rx="4" fill="#F6F5F1" stroke="#222" stroke-width="0.75"/>
  <text class="t" x="457" y="1040" text-anchor="middle">trading-day check</text>

  <line x1="460" y1="926" x2="145" y2="968" class="branch"/>
  <line x1="500" y1="926" x2="311" y2="968" class="branch"/>
  <line x1="550" y1="926" x2="490" y2="968" class="branch"/>
  <line x1="600" y1="926" x2="667" y2="968" class="branch"/>
  <line x1="490" y1="926" x2="240" y2="1020" class="branch"/>
  <line x1="550" y1="926" x2="457" y2="1020" class="branch"/>


  <!-- ══════════════════════════════════════════════════════ -->
  <!-- MIDDLE PANEL                                          -->
  <!-- ══════════════════════════════════════════════════════ -->

  <text class="phase-lbl" x="1270" y="100">PHASE 5 — MARKET INGESTION</text>

  <rect x="1680" y="114" width="270" height="42" rx="6" fill="#EAF0FB" stroke="#222" stroke-width="1"/>
  <circle cx="1694" cy="135" r="10" fill="#3A6FA0"/><text class="badge-num" x="1694" y="139" text-anchor="middle">6</text>
  <text class="h2" x="1825" y="139" text-anchor="middle">Market Data Sources</text>

  <rect x="1280" y="200" width="220" height="76" rx="5" fill="#F6F5F1" stroke="#222" stroke-width="0.75"/>
  <text class="t" x="1390" y="222" text-anchor="middle" font-weight="600">Yahoo Finance</text>
  <text class="ts" x="1390" y="238" text-anchor="middle">S&amp;P 500 · Gold / GLD</text>
  <text class="ts" x="1390" y="252" text-anchor="middle">VIX · FX rates</text>

  <rect x="1530" y="200" width="220" height="76" rx="5" fill="#F6F5F1" stroke="#222" stroke-width="0.75"/>
  <text class="t" x="1640" y="222" text-anchor="middle" font-weight="600">FRED</text>
  <text class="ts" x="1640" y="238" text-anchor="middle">10Y Treasury yield · CPI</text>
  <text class="ts" x="1640" y="252" text-anchor="middle">Federal Funds Rate</text>

  <rect x="1780" y="200" width="240" height="76" rx="5" fill="#F6F5F1" stroke="#222" stroke-width="0.75"/>
  <text class="t" x="1900" y="222" text-anchor="middle" font-weight="600">yfinance (Yahoo Finance)</text>
  <text class="ts" x="1900" y="238" text-anchor="middle">SPY daily OHLCV</text>
  <text class="ts" x="1900" y="252" text-anchor="middle">GLD daily OHLCV</text>

  <line x1="1720" y1="156" x2="1390" y2="200" class="flow"/>
  <line x1="1815" y1="156" x2="1640" y2="200" class="flow"/>
  <line x1="1900" y1="156" x2="1900" y2="200" class="flow"/>

  <text class="phase-lbl" x="1270" y="322">PHASE 6 — PROCESSING</text>

  <rect x="1660" y="336" width="300" height="42" rx="6" fill="#E4F4EC" stroke="#222" stroke-width="1"/>
  <circle cx="1674" cy="357" r="10" fill="#2A7D5F"/><text class="badge-num" x="1674" y="361" text-anchor="middle">7</text>
  <text class="h2" x="1820" y="361" text-anchor="middle">Market Data Processing</text>

  <line x1="1390" y1="276" x2="1720" y2="336" class="flow"/>
  <line x1="1640" y1="276" x2="1780" y2="336" class="flow"/>
  <line x1="1900" y1="276" x2="1900" y2="336" class="flow"/>

  <rect x="1280" y="420" width="170" height="32" rx="4" fill="#F6F5F1" stroke="#222" stroke-width="0.75"/>
  <text class="t" x="1365" y="440" text-anchor="middle">Adjusted close prices</text>
  <rect x="1470" y="420" width="130" height="32" rx="4" fill="#F6F5F1" stroke="#222" stroke-width="0.75"/>
  <text class="t" x="1535" y="440" text-anchor="middle">Log returns</text>
  <rect x="1620" y="420" width="110" height="32" rx="4" fill="#F6F5F1" stroke="#222" stroke-width="0.75"/>
  <text class="t" x="1675" y="440" text-anchor="middle">Volume</text>
  <rect x="1750" y="420" width="150" height="32" rx="4" fill="#F6F5F1" stroke="#222" stroke-width="0.75"/>
  <text class="t" x="1825" y="440" text-anchor="middle">Macro controls</text>
  <rect x="1920" y="420" width="160" height="32" rx="4" fill="#F6F5F1" stroke="#222" stroke-width="0.75"/>
  <text class="t" x="2000" y="440" text-anchor="middle">Intraday UTC bars</text>

  <line x1="1700" y1="378" x2="1365" y2="420" class="branch"/>
  <line x1="1760" y1="378" x2="1535" y2="420" class="branch"/>
  <line x1="1810" y1="378" x2="1675" y2="420" class="branch"/>
  <line x1="1860" y1="378" x2="1825" y2="420" class="branch"/>
  <line x1="1920" y1="378" x2="2000" y2="420" class="branch"/>

  <text class="phase-lbl" x="1270" y="502">PHASE 7 — ALIGNMENT</text>

  <rect x="1640" y="516" width="340" height="42" rx="6" fill="#FDF5E6" stroke="#222" stroke-width="1"/>
  <circle cx="1654" cy="537" r="10" fill="#8B6914"/><text class="badge-num" x="1654" y="541" text-anchor="middle">8</text>
  <text class="h2" x="1820" y="541" text-anchor="middle">Event–Market Alignment</text>

  <line x1="1810" y1="452" x2="1810" y2="516" class="flow"/>
  <path d="M670 905 Q 1100 905 1100 537 Q 1100 537 1640 537" class="cross"/>

  <rect x="1300" y="600" width="160" height="32" rx="4" fill="#F6F5F1" stroke="#222" stroke-width="0.75"/>
  <text class="t" x="1380" y="620" text-anchor="middle">Match event date</text>
  <rect x="1484" y="600" width="175" height="32" rx="4" fill="#F6F5F1" stroke="#222" stroke-width="0.75"/>
  <text class="t" x="1571" y="620" text-anchor="middle">Map to trading day</text>
  <rect x="1683" y="600" width="180" height="32" rx="4" fill="#F6F5F1" stroke="#222" stroke-width="0.75"/>
  <text class="t" x="1773" y="620" text-anchor="middle">Create event windows</text>
  <rect x="1887" y="600" width="180" height="32" rx="4" fill="#F6F5F1" stroke="#222" stroke-width="0.75"/>
  <text class="t" x="1977" y="620" text-anchor="middle">Attach market returns</text>
  <rect x="2091" y="600" width="180" height="32" rx="4" fill="#F6F5F1" stroke="#222" stroke-width="0.75"/>
  <text class="t" x="2181" y="620" text-anchor="middle">Attach macro controls</text>

  <line x1="1690" y1="558" x2="1380" y2="600" class="branch"/>
  <line x1="1750" y1="558" x2="1571" y2="600" class="branch"/>
  <line x1="1810" y1="558" x2="1773" y2="600" class="branch"/>
  <line x1="1870" y1="558" x2="1977" y2="600" class="branch"/>
  <line x1="1930" y1="558" x2="2181" y2="600" class="branch"/>

  <text class="phase-lbl" x="1270" y="688">PHASE 8 — FEATURE ENGINEERING</text>

  <rect x="1660" y="700" width="300" height="42" rx="6" fill="#EEEDF8" stroke="#222" stroke-width="1"/>
  <circle cx="1674" cy="721" r="10" fill="#534AB7"/><text class="badge-num" x="1674" y="725" text-anchor="middle">9</text>
  <text class="h2" x="1820" y="725" text-anchor="middle">Feature Matrix</text>

  <line x1="1810" y1="632" x2="1810" y2="700" class="flow"/>

  <rect x="1290" y="784" width="110" height="30" rx="4" fill="#F6F5F1" stroke="#222" stroke-width="0.75"/>
  <text class="t" x="1345" y="803" text-anchor="middle">event_id</text>
  <rect x="1420" y="784" width="100" height="30" rx="4" fill="#F6F5F1" stroke="#222" stroke-width="0.75"/>
  <text class="t" x="1470" y="803" text-anchor="middle">actor</text>
  <rect x="1540" y="784" width="100" height="30" rx="4" fill="#F6F5F1" stroke="#222" stroke-width="0.75"/>
  <text class="t" x="1590" y="803" text-anchor="middle">asset</text>
  <rect x="1660" y="784" width="110" height="30" rx="4" fill="#F6F5F1" stroke="#222" stroke-width="0.75"/>
  <text class="t" x="1715" y="803" text-anchor="middle">return_t</text>
  <rect x="1790" y="784" width="145" height="30" rx="4" fill="#F6F5F1" stroke="#222" stroke-width="0.75"/>
  <text class="t" x="1862" y="803" text-anchor="middle">window_return</text>
  <rect x="1955" y="784" width="155" height="30" rx="4" fill="#F6F5F1" stroke="#222" stroke-width="0.75"/>
  <text class="t" x="2032" y="803" text-anchor="middle">sentiment_score</text>
  <rect x="2130" y="784" width="110" height="30" rx="4" fill="#F6F5F1" stroke="#222" stroke-width="0.75"/>
  <text class="t" x="2185" y="803" text-anchor="middle">controls</text>

  <line x1="1700" y1="742" x2="1345" y2="784" class="branch"/>
  <line x1="1740" y1="742" x2="1470" y2="784" class="branch"/>
  <line x1="1770" y1="742" x2="1590" y2="784" class="branch"/>
  <line x1="1810" y1="742" x2="1715" y2="784" class="branch"/>
  <line x1="1850" y1="742" x2="1862" y2="784" class="branch"/>
  <line x1="1890" y1="742" x2="2032" y2="784" class="branch"/>
  <line x1="1920" y1="742" x2="2185" y2="784" class="branch"/>


  <!-- ══════════════════════════════════════════════════════ -->
  <!-- RIGHT PANEL                                           -->
  <!-- ══════════════════════════════════════════════════════ -->

  <text class="phase-lbl" x="2450" y="100">PHASE 9 — NLP + BASELINE</text>

  <rect x="2500" y="114" width="260" height="42" rx="6" fill="#FBEAF0" stroke="#222" stroke-width="1"/>
  <circle cx="2514" cy="135" r="10" fill="#993556"/><text class="badge-num" x="2514" y="139" text-anchor="middle">10</text>
  <text class="h2" x="2640" y="139" text-anchor="middle">Sentiment Analysis</text>

  <path d="M1960 721 Q 2200 721 2200 135 Q 2200 135 2500 135" class="cross"/>

  <rect x="2460" y="196" width="110" height="30" rx="4" fill="#F6F5F1" stroke="#222" stroke-width="0.75"/>
  <text class="t" x="2515" y="215" text-anchor="middle">FinBERT</text>
  <rect x="2590" y="196" width="135" height="30" rx="4" fill="#F6F5F1" stroke="#222" stroke-width="0.75"/>
  <text class="t" x="2657" y="215" text-anchor="middle">Positive score</text>
  <rect x="2745" y="196" width="135" height="30" rx="4" fill="#F6F5F1" stroke="#222" stroke-width="0.75"/>
  <text class="t" x="2812" y="215" text-anchor="middle">Negative score</text>
  <rect x="2510" y="244" width="125" height="30" rx="4" fill="#F6F5F1" stroke="#222" stroke-width="0.75"/>
  <text class="t" x="2572" y="263" text-anchor="middle">Neutral score</text>
  <rect x="2660" y="244" width="165" height="30" rx="4" fill="#F6F5F1" stroke="#222" stroke-width="0.75"/>
  <text class="t" x="2742" y="263" text-anchor="middle">Tone classification</text>

  <line x1="2540" y1="156" x2="2515" y2="196" class="branch"/>
  <line x1="2630" y1="156" x2="2657" y2="196" class="branch"/>
  <line x1="2720" y1="156" x2="2812" y2="196" class="branch"/>
  <line x1="2570" y1="156" x2="2572" y2="244" class="branch"/>
  <line x1="2680" y1="156" x2="2742" y2="244" class="branch"/>

  <rect x="2960" y="114" width="260" height="42" rx="6" fill="#FDF5E6" stroke="#222" stroke-width="1"/>
  <circle cx="2974" cy="135" r="10" fill="#8B6914"/><text class="badge-num" x="2974" y="139" text-anchor="middle">11</text>
  <text class="h2" x="3100" y="139" text-anchor="middle">ARIMA + DoWhy Baseline</text>

  <path d="M1960 721 Q 2300 721 2300 100 Q 2300 100 2960 135" class="cross"/>

  <rect x="2900" y="196" width="210" height="30" rx="4" fill="#F6F5F1" stroke="#222" stroke-width="0.75"/>
  <text class="t" x="3005" y="215" text-anchor="middle">Pre-event estimation window (120d)</text>
  <rect x="3130" y="196" width="170" height="30" rx="4" fill="#F6F5F1" stroke="#222" stroke-width="0.75"/>
  <text class="t" x="3215" y="215" text-anchor="middle">AIC order selection</text>
  <rect x="2940" y="244" width="150" height="30" rx="4" fill="#F6F5F1" stroke="#222" stroke-width="0.75"/>
  <text class="t" x="3015" y="263" text-anchor="middle">Expected return</text>
  <rect x="3120" y="244" width="170" height="30" rx="4" fill="#F6F5F1" stroke="#222" stroke-width="0.75"/>
  <text class="t" x="3205" y="263" text-anchor="middle">Model diagnostics</text>

  <line x1="3020" y1="156" x2="3005" y2="196" class="branch"/>
  <line x1="3140" y1="156" x2="3215" y2="196" class="branch"/>
  <line x1="3040" y1="156" x2="3015" y2="244" class="branch"/>
  <line x1="3120" y1="156" x2="3205" y2="244" class="branch"/>

  <text class="phase-lbl" x="2450" y="330">PHASE 10 — ABNORMAL RETURNS</text>

  <rect x="2740" y="344" width="260" height="42" rx="6" fill="#FAECE7" stroke="#222" stroke-width="1"/>
  <circle cx="2754" cy="365" r="10" fill="#993C1D"/><text class="badge-num" x="2754" y="369" text-anchor="middle">12</text>
  <text class="h2" x="2880" y="369" text-anchor="middle">Abnormal Returns</text>

  <line x1="2630" y1="274" x2="2780" y2="344" class="flow"/>
  <line x1="3090" y1="274" x2="2960" y2="344" class="flow"/>

  <rect x="2580" y="428" width="150" height="32" rx="4" fill="#F6F5F1" stroke="#222" stroke-width="0.75"/>
  <text class="t" x="2655" y="448" text-anchor="middle">Actual return</text>
  <rect x="2754" y="428" width="155" height="32" rx="4" fill="#F6F5F1" stroke="#222" stroke-width="0.75"/>
  <text class="t" x="2831" y="448" text-anchor="middle">Expected return</text>
  <rect x="2933" y="428" width="210" height="32" rx="4" fill="#F6F5F1" stroke="#222" stroke-width="0.75"/>
  <text class="t" x="3038" y="448" text-anchor="middle">AR = Actual − Expected</text>

  <line x1="2800" y1="386" x2="2655" y2="428" class="branch"/>
  <line x1="2870" y1="386" x2="2831" y2="428" class="branch"/>
  <line x1="2940" y1="386" x2="3038" y2="428" class="branch"/>

  <text class="phase-lbl" x="2450" y="510">PHASE 11 — EVENT STUDY</text>

  <rect x="2740" y="524" width="260" height="42" rx="6" fill="#EEEDF8" stroke="#222" stroke-width="1"/>
  <circle cx="2754" cy="545" r="10" fill="#534AB7"/><text class="badge-num" x="2754" y="549" text-anchor="middle">13</text>
  <text class="h2" x="2880" y="549" text-anchor="middle">CAR Calculation</text>

  <line x1="2870" y1="460" x2="2870" y2="524" class="flow"/>

  <rect x="2520" y="608" width="140" height="32" rx="4" fill="#F6F5F1" stroke="#222" stroke-width="0.75"/>
  <text class="t" x="2590" y="628" text-anchor="middle">[−1, +1] window</text>
  <rect x="2684" y="608" width="140" height="32" rx="4" fill="#F6F5F1" stroke="#222" stroke-width="0.75"/>
  <text class="t" x="2754" y="628" text-anchor="middle">[0, +1] window</text>
  <rect x="2848" y="608" width="140" height="32" rx="4" fill="#F6F5F1" stroke="#222" stroke-width="0.75"/>
  <text class="t" x="2918" y="628" text-anchor="middle">[−3, +3] window</text>
  <rect x="3012" y="608" width="140" height="32" rx="4" fill="#F6F5F1" stroke="#222" stroke-width="0.75"/>
  <text class="t" x="3082" y="628" text-anchor="middle">[0, +5] window</text>

  <line x1="2790" y1="566" x2="2590" y2="608" class="branch"/>
  <line x1="2840" y1="566" x2="2754" y2="608" class="branch"/>
  <line x1="2900" y1="566" x2="2918" y2="608" class="branch"/>
  <line x1="2950" y1="566" x2="3082" y2="608" class="branch"/>

  <text class="phase-lbl" x="2450" y="700">PHASE 12 — REGRESSION</text>

  <rect x="2740" y="714" width="260" height="42" rx="6" fill="#E4F4EC" stroke="#222" stroke-width="1"/>
  <circle cx="2754" cy="735" r="10" fill="#2A7D5F"/><text class="badge-num" x="2754" y="739" text-anchor="middle">14</text>
  <text class="h2" x="2880" y="739" text-anchor="middle">ML Predictive Models</text>

  <line x1="2870" y1="640" x2="2870" y2="714" class="flow"/>

  <rect x="2460" y="798" width="200" height="32" rx="4" fill="#F6F5F1" stroke="#222" stroke-width="0.75"/>
  <text class="t" x="2560" y="818" text-anchor="middle">Forward return as target (y)</text>
  <rect x="2684" y="798" width="185" height="32" rx="4" fill="#F6F5F1" stroke="#222" stroke-width="0.75"/>
  <text class="t" x="2776" y="818" text-anchor="middle">XGBoost · LightGBM · LASSO</text>
  <rect x="2893" y="798" width="140" height="32" rx="4" fill="#F6F5F1" stroke="#222" stroke-width="0.75"/>
  <text class="t" x="2963" y="818" text-anchor="middle">TimeSeriesSplit CV (5-fold)</text>
  <rect x="3057" y="798" width="130" height="32" rx="4" fill="#F6F5F1" stroke="#222" stroke-width="0.75"/>
  <text class="t" x="3122" y="818" text-anchor="middle">SHAP explainability</text>
  <rect x="3211" y="798" width="155" height="32" rx="4" fill="#F6F5F1" stroke="#222" stroke-width="0.75"/>
  <text class="t" x="3288" y="818" text-anchor="middle">Control variables</text>

  <line x1="2780" y1="756" x2="2560" y2="798" class="branch"/>
  <line x1="2840" y1="756" x2="2776" y2="798" class="branch"/>
  <line x1="2900" y1="756" x2="2963" y2="798" class="branch"/>
  <line x1="2940" y1="756" x2="3122" y2="798" class="branch"/>
  <line x1="2970" y1="756" x2="3288" y2="798" class="branch"/>

  <text class="phase-lbl" x="2450" y="892">PHASE 13 — INTERPRETATION</text>

  <rect x="2720" y="906" width="300" height="42" rx="6" fill="#EAF0FB" stroke="#222" stroke-width="1"/>
  <circle cx="2734" cy="927" r="10" fill="#3A6FA0"/><text class="badge-num" x="2734" y="931" text-anchor="middle">15</text>
  <text class="h2" x="2880" y="931" text-anchor="middle">Results + Interpretation</text>

  <line x1="2870" y1="830" x2="2870" y2="906" class="flow"/>

  <rect x="2460" y="990" width="175" height="32" rx="4" fill="#F6F5F1" stroke="#222" stroke-width="0.75"/>
  <text class="t" x="2547" y="1010" text-anchor="middle">Market reaction</text>
  <rect x="2660" y="990" width="240" height="32" rx="4" fill="#F6F5F1" stroke="#222" stroke-width="0.75"/>
  <text class="t" x="2780" y="1010" text-anchor="middle">Political communication effect</text>
  <rect x="2924" y="990" width="210" height="32" rx="4" fill="#F6F5F1" stroke="#222" stroke-width="0.75"/>
  <text class="t" x="3029" y="1010" text-anchor="middle">Gold safe-haven behaviour</text>
  <rect x="3158" y="990" width="180" height="32" rx="4" fill="#F6F5F1" stroke="#222" stroke-width="0.75"/>
  <text class="t" x="3248" y="1010" text-anchor="middle">Policy implications</text>
  <rect x="2730" y="1042" width="175" height="32" rx="4" fill="#F6F5F1" stroke="#222" stroke-width="0.75"/>
  <text class="t" x="2817" y="1062" text-anchor="middle">Dissertation figures</text>

  <line x1="2780" y1="948" x2="2547" y2="990" class="branch"/>
  <line x1="2850" y1="948" x2="2780" y2="990" class="branch"/>
  <line x1="2920" y1="948" x2="3029" y2="990" class="branch"/>
  <line x1="2980" y1="948" x2="3248" y2="990" class="branch"/>
  <line x1="2870" y1="948" x2="2817" y2="1042" class="branch"/>


  <!-- ══════════════════════════════════════════════════════ -->
  <!-- LEGEND                                                -->
  <!-- ══════════════════════════════════════════════════════ -->
  <rect x="40" y="1650" width="3720" height="140" rx="8" fill="#FAFAFA" stroke="#222" stroke-width="0.75"/>

  <!-- Header with underline -->
  <text class="leghead" x="70" y="1682">Legend</text>
  <line x1="70" y1="1694" x2="3730" y2="1694" stroke="#ddd" stroke-width="0.5"/>

  <!-- Row 1 — Node categories -->
  <rect x="70"   y="1714" width="22" height="22" rx="4" fill="#EAF0FB" stroke="#222" stroke-width="0.75"/>
  <text class="leg" x="100" y="1725" dominant-baseline="central">Data source / results</text>

  <rect x="310"  y="1714" width="22" height="22" rx="4" fill="#E4F4EC" stroke="#222" stroke-width="0.75"/>
  <text class="leg" x="340" y="1725" dominant-baseline="central">Processing / regression</text>

  <rect x="580"  y="1714" width="22" height="22" rx="4" fill="#FDF5E6" stroke="#222" stroke-width="0.75"/>
  <text class="leg" x="610" y="1725" dominant-baseline="central">Storage / alignment / ARIMA</text>

  <rect x="890"  y="1714" width="22" height="22" rx="4" fill="#EEEDF8" stroke="#222" stroke-width="0.75"/>
  <text class="leg" x="920" y="1725" dominant-baseline="central">Catalogue / matrix / CAR</text>

  <rect x="1200" y="1714" width="22" height="22" rx="4" fill="#FAECE7" stroke="#222" stroke-width="0.75"/>
  <text class="leg" x="1230" y="1725" dominant-baseline="central">Validation / abnormal returns</text>

  <rect x="1540" y="1714" width="22" height="22" rx="4" fill="#FBEAF0" stroke="#222" stroke-width="0.75"/>
  <text class="leg" x="1570" y="1725" dominant-baseline="central">Sentiment analysis</text>

  <rect x="1780" y="1714" width="22" height="22" rx="4" fill="#F6F5F1" stroke="#222" stroke-width="0.75"/>
  <text class="leg" x="1810" y="1725" dominant-baseline="central">Detail / field node</text>

  <!-- Row 2 — Connector types + structural elements -->
  <line x1="70" y1="1762" x2="136" y2="1762" stroke="#888" stroke-width="1" marker-end="url(#ar)"/>
  <text class="leg" x="146" y="1762" dominant-baseline="central">Intra-panel flow</text>

  <line x1="370" y1="1762" x2="436" y2="1762" stroke="#C2553A" stroke-width="1.2" stroke-dasharray="6 4" marker-end="url(#ar-x)"/>
  <text class="leg" x="446" y="1762" dominant-baseline="central">Cross-panel link</text>

  <line x1="660" y1="1762" x2="726" y2="1762" stroke="#bbb" stroke-width="0.7"/>
  <text class="leg" x="736" y="1762" dominant-baseline="central">Detail branch (no arrow)</text>

  <rect x="1020" y="1753" width="56" height="18" rx="4" fill="none" stroke="#ddd" stroke-width="0.75" stroke-dasharray="6 4"/>
  <text class="leg" x="1086" y="1762" dominant-baseline="central">Panel boundary</text>

  <rect x="1280" y="1753" width="56" height="18" rx="4" fill="#2D3142"/>
  <text class="leg" x="1346" y="1762" dominant-baseline="central">Panel header</text>

  <circle cx="1510" cy="1762" r="10" fill="#3A6FA0"/>
  <text class="badge-num" x="1510" y="1766" text-anchor="middle">N</text>
  <text class="leg" x="1528" y="1762" dominant-baseline="central">Stage number</text>

  <text class="phase-lbl" x="1690" y="1762">PHASE N</text>
  <text class="leg" x="1760" y="1762" dominant-baseline="central">Phase label</text>

  <rect x="1920" y="1753" width="22" height="18" rx="4" fill="url(#grid)" stroke="#ddd" stroke-width="0.5"/>
  <text class="leg" x="1952" y="1762" dominant-baseline="central">Background grid</text>


  <!-- ══════════════════════════════════════════════════════ -->
  <!-- FOOTER                                                -->
  <!-- ══════════════════════════════════════════════════════ -->
  <text class="footer" x="1900" y="1810" text-anchor="middle">DATSCI7030 — Full System Architecture — Version 1.1</text>

</svg>
