<svg xmlns="http://www.w3.org/2000/svg" width="640" height="670" viewBox="0 0 640 670" font-family="Arial, Helvetica, sans-serif">
  <defs>
    <marker id="arrow" viewBox="0 0 10 10" refX="8" refY="5" markerWidth="7" markerHeight="7" orient="auto-start-reverse">
      <path d="M1 1L9 5L1 9Z" fill="#5B8FC7"/>
    </marker>
  </defs>
  <rect width="640" height="670" fill="#FFFFFF"/>
  <text x="320.0" y="34" text-anchor="middle" font-size="19" font-weight="700" fill="#1E1E1E" font-family="Arial, Helvetica, sans-serif">Modelling Flow (RQ3)</text>
  <text x="320.0" y="54" text-anchor="middle" font-size="12" fill="#969696" font-style="italic" font-family="Arial, Helvetica, sans-serif">DATSCI7030 — baseline vs. event-enhanced model comparison</text>
  <line x1="30" y1="66" x2="610" y2="66" stroke="#DCDCDC" stroke-width="0.8"/>
  <rect x="80.0" y="84" width="480" height="54" rx="9" fill="#F3F7FC" stroke="#5B8FC7" stroke-width="1.1"/>
  <text x="320.0" y="105.0" text-anchor="middle" font-size="13.5" font-weight="700" fill="#1E1E1E">feature_matrix.parquet</text>
  <text x="320.0" y="125.0" text-anchor="middle" font-size="11.5" fill="#4F4F4F">Frozen v1.0 — FES v1.0, 95 features</text>
  <rect x="80.0" y="166" width="480" height="54" rx="9" fill="#F3F7FC" stroke="#5B8FC7" stroke-width="1.1"/>
  <text x="320.0" y="187.0" text-anchor="middle" font-size="13.5" font-weight="700" fill="#1E1E1E">Market-only Baseline</text>
  <text x="320.0" y="207.0" text-anchor="middle" font-size="11.5" fill="#4F4F4F">Baseline_LASSO — 27 Market features (MCP v1.0)</text>
  <line x1="320.0" y1="138" x2="320.0" y2="166" stroke="#5B8FC7" stroke-width="1.5" marker-end="url(#arrow)"/>
  <rect x="80.0" y="248" width="480" height="54" rx="9" fill="#F3F7FC" stroke="#5B8FC7" stroke-width="1.1"/>
  <text x="320.0" y="269.0" text-anchor="middle" font-size="13.5" font-weight="700" fill="#1E1E1E">Event-Enhanced Models</text>
  <text x="320.0" y="289.0" text-anchor="middle" font-size="11.5" fill="#4F4F4F">Event_LASSO · XGBoost · LightGBM (95 features)</text>
  <line x1="320.0" y1="220" x2="320.0" y2="248" stroke="#5B8FC7" stroke-width="1.5" marker-end="url(#arrow)"/>
  <rect x="80.0" y="330" width="480" height="54" rx="9" fill="#F3F7FC" stroke="#5B8FC7" stroke-width="1.1"/>
  <text x="320.0" y="351.0" text-anchor="middle" font-size="13.5" font-weight="700" fill="#1E1E1E">Evaluation Metrics</text>
  <text x="320.0" y="371.0" text-anchor="middle" font-size="11.5" fill="#4F4F4F">RMSE · MAE · R² · Directional Accuracy · IC</text>
  <line x1="320.0" y1="302" x2="320.0" y2="330" stroke="#5B8FC7" stroke-width="1.5" marker-end="url(#arrow)"/>
  <rect x="80.0" y="412" width="480" height="54" rx="9" fill="#F3F7FC" stroke="#5B8FC7" stroke-width="1.1"/>
  <text x="320.0" y="433.0" text-anchor="middle" font-size="13.5" font-weight="700" fill="#1E1E1E">Statistical Comparison</text>
  <text x="320.0" y="453.0" text-anchor="middle" font-size="11.5" fill="#4F4F4F">Diebold-Mariano · two-proportion z-test · Bonferroni</text>
  <line x1="320.0" y1="384" x2="320.0" y2="412" stroke="#5B8FC7" stroke-width="1.5" marker-end="url(#arrow)"/>
  <rect x="80.0" y="494" width="480" height="54" rx="9" fill="#F3F7FC" stroke="#5B8FC7" stroke-width="1.1"/>
  <text x="320.0" y="515.0" text-anchor="middle" font-size="13.5" font-weight="700" fill="#1E1E1E">Explainability</text>
  <text x="320.0" y="535.0" text-anchor="middle" font-size="11.5" fill="#4F4F4F">SHAP — global summary + dependence</text>
  <line x1="320.0" y1="466" x2="320.0" y2="494" stroke="#5B8FC7" stroke-width="1.5" marker-end="url(#arrow)"/>
  <rect x="80.0" y="576" width="480" height="54" rx="9" fill="#F3F7FC" stroke="#5B8FC7" stroke-width="1.1"/>
  <text x="320.0" y="597.0" text-anchor="middle" font-size="13.5" font-weight="700" fill="#1E1E1E">RQ3 Conclusion</text>
  <text x="320.0" y="617.0" text-anchor="middle" font-size="11.5" fill="#4F4F4F">H0₃ not rejected — 09_results_log.md</text>
  <line x1="320.0" y1="548" x2="320.0" y2="576" stroke="#5B8FC7" stroke-width="1.5" marker-end="url(#arrow)"/>
  <text x="320.0" y="656" text-anchor="middle" font-size="9.5" fill="#969696" font-family="Arial, Helvetica, sans-serif">DATSCI7030 — Modelling Flow — Architecture v2.3 (2026-07-13, lighter palette)</text>
</svg>
