<svg xmlns="http://www.w3.org/2000/svg" width="620" height="832" viewBox="0 0 620 832" font-family="Arial, Helvetica, sans-serif">
  <defs>
    <marker id="arrow" viewBox="0 0 10 10" refX="8" refY="5" markerWidth="7" markerHeight="7" orient="auto-start-reverse">
      <path d="M1 1L9 5L1 9Z" fill="#3A6EA5"/>
    </marker>
  </defs>
  <rect width="620" height="832" fill="#FFFFFF"/>
  <text x="310.0" y="34" text-anchor="middle" font-size="19" font-weight="700" fill="#111111" font-family="Arial, Helvetica, sans-serif">Project Notebook Pipeline</text>
  <text x="310.0" y="54" text-anchor="middle" font-size="12" fill="#888888" font-style="italic" font-family="Arial, Helvetica, sans-serif">DATSCI7030 — notebook execution order, Phase 0-Dissertation</text>
  <line x1="30" y1="66" x2="590" y2="66" stroke="#CCCCCC" stroke-width="0.8"/>
  <rect x="80.0" y="84" width="460" height="52" rx="9" fill="#EEF3F8" stroke="#3A6EA5" stroke-width="1.4"/>
  <text x="310.0" y="104.0" text-anchor="middle" font-size="14" font-weight="700" fill="#111111">01 — Data Collection</text>
  <text x="310.0" y="124.0" text-anchor="middle" font-size="11.5" fill="#444444">yfinance · APP · FOMC · FRED</text>
  <rect x="80.0" y="166" width="460" height="52" rx="9" fill="#EEF3F8" stroke="#3A6EA5" stroke-width="1.4"/>
  <text x="310.0" y="186.0" text-anchor="middle" font-size="14" font-weight="700" fill="#111111">02 — Exploratory Data Analysis</text>
  <text x="310.0" y="206.0" text-anchor="middle" font-size="11.5" fill="#444444">Descriptive stats · stationarity (SAP v1.0)</text>
  <line x1="310.0" y1="136" x2="310.0" y2="166" stroke="#3A6EA5" stroke-width="1.8" marker-end="url(#arrow)"/>
  <rect x="80.0" y="248" width="460" height="52" rx="9" fill="#EEF3F8" stroke="#3A6EA5" stroke-width="1.4"/>
  <text x="310.0" y="268.0" text-anchor="middle" font-size="14" font-weight="700" fill="#111111">03 — Event Detection</text>
  <text x="310.0" y="288.0" text-anchor="middle" font-size="11.5" fill="#444444">Event tagging · sentiment scoring</text>
  <line x1="310.0" y1="218" x2="310.0" y2="248" stroke="#3A6EA5" stroke-width="1.8" marker-end="url(#arrow)"/>
  <rect x="80.0" y="330" width="460" height="52" rx="9" fill="#EEF3F8" stroke="#3A6EA5" stroke-width="1.4"/>
  <text x="310.0" y="350.0" text-anchor="middle" font-size="14" font-weight="700" fill="#111111">04 — Event Study / Causal Analysis</text>
  <text x="310.0" y="370.0" text-anchor="middle" font-size="11.5" fill="#444444">CAR / CAAR · DoWhy backdoor estimate</text>
  <line x1="310.0" y1="300" x2="310.0" y2="330" stroke="#3A6EA5" stroke-width="1.8" marker-end="url(#arrow)"/>
  <rect x="80.0" y="412" width="460" height="52" rx="9" fill="#EEF3F8" stroke="#3A6EA5" stroke-width="1.4"/>
  <text x="310.0" y="432.0" text-anchor="middle" font-size="14" font-weight="700" fill="#111111">05 — Feature Engineering</text>
  <text x="310.0" y="452.0" text-anchor="middle" font-size="11.5" fill="#444444">feature_matrix.parquet (FES v1.0)</text>
  <line x1="310.0" y1="382" x2="310.0" y2="412" stroke="#3A6EA5" stroke-width="1.8" marker-end="url(#arrow)"/>
  <rect x="80.0" y="494" width="460" height="52" rx="9" fill="#EEF3F8" stroke="#3A6EA5" stroke-width="1.4"/>
  <text x="310.0" y="514.0" text-anchor="middle" font-size="14" font-weight="700" fill="#111111">06 — Baseline</text>
  <text x="310.0" y="534.0" text-anchor="middle" font-size="11.5" fill="#444444">Baseline_LASSO — market-only (MCP v1.0)</text>
  <line x1="310.0" y1="464" x2="310.0" y2="494" stroke="#3A6EA5" stroke-width="1.8" marker-end="url(#arrow)"/>
  <rect x="80.0" y="576" width="460" height="52" rx="9" fill="#EEF3F8" stroke="#3A6EA5" stroke-width="1.4"/>
  <text x="310.0" y="596.0" text-anchor="middle" font-size="14" font-weight="700" fill="#111111">07 — Model Evaluation</text>
  <text x="310.0" y="616.0" text-anchor="middle" font-size="11.5" fill="#444444">Event-enhanced models vs. baseline</text>
  <line x1="310.0" y1="546" x2="310.0" y2="576" stroke="#3A6EA5" stroke-width="1.8" marker-end="url(#arrow)"/>
  <rect x="80.0" y="658" width="460" height="52" rx="9" fill="#EEF3F8" stroke="#3A6EA5" stroke-width="1.4"/>
  <text x="310.0" y="678.0" text-anchor="middle" font-size="14" font-weight="700" fill="#111111">08 — Results Visualisation</text>
  <text x="310.0" y="698.0" text-anchor="middle" font-size="11.5" fill="#444444">Integrated dissertation figures</text>
  <line x1="310.0" y1="628" x2="310.0" y2="658" stroke="#3A6EA5" stroke-width="1.8" marker-end="url(#arrow)"/>
  <rect x="80.0" y="740" width="460" height="52" rx="9" fill="#EEF3F8" stroke="#3A6EA5" stroke-width="1.4"/>
  <text x="310.0" y="760.0" text-anchor="middle" font-size="14" font-weight="700" fill="#111111">Dissertation</text>
  <text x="310.0" y="780.0" text-anchor="middle" font-size="11.5" fill="#444444">Chapters 1–6</text>
  <line x1="310.0" y1="710" x2="310.0" y2="740" stroke="#3A6EA5" stroke-width="1.8" marker-end="url(#arrow)"/>
  <text x="310.0" y="818" text-anchor="middle" font-size="9.5" fill="#888888" font-family="Arial, Helvetica, sans-serif">DATSCI7030 — Causal Event-Driven Market Impact Modelling — Architecture v2.0 (2026-07-06)</text>
</svg>
