<svg xmlns="http://www.w3.org/2000/svg" width="900" height="554" viewBox="0 0 900 554" font-family="Arial, Helvetica, sans-serif">
  <defs>
    <marker id="arrow" viewBox="0 0 10 10" refX="8" refY="5" markerWidth="7" markerHeight="7" orient="auto-start-reverse">
      <path d="M1 1L9 5L1 9Z" fill="#5B8FC7"/>
    </marker>
  </defs>
  <rect width="900" height="554" fill="#FFFFFF"/>
  <text x="450.0" y="34" text-anchor="middle" font-size="19" font-weight="700" fill="#1E1E1E" font-family="Arial, Helvetica, sans-serif">Research Question Traceability</text>
  <text x="450.0" y="54" text-anchor="middle" font-size="12" fill="#969696" font-style="italic" font-family="Arial, Helvetica, sans-serif">DATSCI7030 — each RQ's method chain through to Results (see note below on RQ1/RQ2 lane assignment)</text>
  <line x1="30" y1="66" x2="870" y2="66" stroke="#DCDCDC" stroke-width="0.8"/>
  <rect x="135.0" y="90" width="190" height="56" rx="9" fill="#F3F7FC" stroke="#5B8FC7" stroke-width="1.1"/>
  <text x="230.0" y="112.0" text-anchor="middle" font-size="12" font-weight="700" fill="#1E1E1E">RQ1</text>
  <text x="230.0" y="132.0" text-anchor="middle" font-size="10.5" fill="#4F4F4F">Abnormal returns</text>
  <rect x="355.0" y="90" width="190" height="56" rx="9" fill="#F3F7FC" stroke="#5B8FC7" stroke-width="1.1"/>
  <text x="450.0" y="112.0" text-anchor="middle" font-size="12" font-weight="700" fill="#1E1E1E">Event Study</text>
  <text x="450.0" y="132.0" text-anchor="middle" font-size="10.5" fill="#4F4F4F">CAR / CAAR</text>
  <line x1="325.0" y1="118.0" x2="355.0" y2="118.0" stroke="#5B8FC7" stroke-width="1.5" marker-end="url(#arrow)"/>
  <rect x="575.0" y="90" width="190" height="56" rx="9" fill="#F3F7FC" stroke="#5B8FC7" stroke-width="1.1"/>
  <text x="670.0" y="112.0" text-anchor="middle" font-size="12" font-weight="700" fill="#1E1E1E">Causal Analysis</text>
  <text x="670.0" y="132.0" text-anchor="middle" font-size="10.5" fill="#4F4F4F">DoWhy SCM / refutations</text>
  <line x1="545.0" y1="118.0" x2="575.0" y2="118.0" stroke="#5B8FC7" stroke-width="1.5" marker-end="url(#arrow)"/>
  <rect x="135.0" y="206" width="190" height="56" rx="9" fill="#F3F7FC" stroke="#5B8FC7" stroke-width="1.1"/>
  <text x="230.0" y="228.0" text-anchor="middle" font-size="12" font-weight="700" fill="#1E1E1E">RQ2</text>
  <text x="230.0" y="248.0" text-anchor="middle" font-size="10.5" fill="#4F4F4F">Feature importance</text>
  <rect x="355.0" y="206" width="190" height="56" rx="9" fill="#F3F7FC" stroke="#5B8FC7" stroke-width="1.1"/>
  <text x="450.0" y="228.0" text-anchor="middle" font-size="12" font-weight="700" fill="#1E1E1E">Feature Matrix</text>
  <text x="450.0" y="248.0" text-anchor="middle" font-size="10.5" fill="#4F4F4F">FES v1.0</text>
  <line x1="325.0" y1="234.0" x2="355.0" y2="234.0" stroke="#5B8FC7" stroke-width="1.5" marker-end="url(#arrow)"/>
  <rect x="575.0" y="206" width="190" height="56" rx="9" fill="#F3F7FC" stroke="#5B8FC7" stroke-width="1.1"/>
  <text x="670.0" y="228.0" text-anchor="middle" font-size="12" font-weight="700" fill="#1E1E1E">SHAP / RF Importance</text>
  <text x="670.0" y="248.0" text-anchor="middle" font-size="10.5" fill="#4F4F4F">Ranking + corroboration</text>
  <line x1="545.0" y1="234.0" x2="575.0" y2="234.0" stroke="#5B8FC7" stroke-width="1.5" marker-end="url(#arrow)"/>
  <rect x="135.0" y="322" width="190" height="56" rx="9" fill="#F3F7FC" stroke="#5B8FC7" stroke-width="1.1"/>
  <text x="230.0" y="344.0" text-anchor="middle" font-size="12" font-weight="700" fill="#1E1E1E">RQ3</text>
  <text x="230.0" y="364.0" text-anchor="middle" font-size="10.5" fill="#4F4F4F">ML vs. baseline</text>
  <rect x="355.0" y="322" width="190" height="56" rx="9" fill="#F3F7FC" stroke="#5B8FC7" stroke-width="1.1"/>
  <text x="450.0" y="344.0" text-anchor="middle" font-size="12" font-weight="700" fill="#1E1E1E">Baseline vs. Event Models</text>
  <text x="450.0" y="364.0" text-anchor="middle" font-size="9.5" fill="#4F4F4F">Event_LASSO / XGBoost / LightGBM</text>
  <line x1="325.0" y1="350.0" x2="355.0" y2="350.0" stroke="#5B8FC7" stroke-width="1.5" marker-end="url(#arrow)"/>
  <rect x="575.0" y="322" width="190" height="56" rx="9" fill="#F3F7FC" stroke="#5B8FC7" stroke-width="1.1"/>
  <text x="670.0" y="344.0" text-anchor="middle" font-size="12" font-weight="700" fill="#1E1E1E">Statistical Comparison</text>
  <text x="670.0" y="364.0" text-anchor="middle" font-size="10.5" fill="#4F4F4F">DM test · z-test · Bonferroni</text>
  <line x1="545.0" y1="350.0" x2="575.0" y2="350.0" stroke="#5B8FC7" stroke-width="1.5" marker-end="url(#arrow)"/>
  <polyline points="765.0,118 820.0,118 820.0,480.0 630.0,480.0" fill="none" stroke="#5B8FC7" stroke-width="1.3" marker-end="url(#arrow)"/>
  <polyline points="765.0,234 800.0,234 800.0,460.0 630.0,460.0" fill="none" stroke="#5B8FC7" stroke-width="1.3" marker-end="url(#arrow)"/>
  <polyline points="670.0,378 670.0,408.0 450.0,408.0 450.0,438" fill="none" stroke="#5B8FC7" stroke-width="1.3" marker-end="url(#arrow)"/>
  <rect x="270.0" y="438" width="360" height="56" rx="9" fill="#F3F7FC" stroke="#5B8FC7" stroke-width="1.1"/>
  <text x="450.0" y="460.0" text-anchor="middle" font-size="13.5" font-weight="700" fill="#1E1E1E">Results / Dissertation</text>
  <text x="450.0" y="480.0" text-anchor="middle" font-size="11.5" fill="#4F4F4F">Chapter 4 (Results) · Chapter 6 (Conclusion)</text>
  <text x="450.0" y="524" text-anchor="middle" font-size="10" fill="#969696" font-style="italic">Note: RQ1 evidence combines Event Study AND Causal Analysis (both answer RQ1, per 01_research_questions.md) — shown as one lane above for accuracy.</text>
  <text x="450.0" y="544" text-anchor="middle" font-size="9.5" fill="#969696" font-family="Arial, Helvetica, sans-serif">DATSCI7030 — RQ Traceability — Architecture v2.3 (2026-07-13, lighter palette; fixed a connector line crossing and a text overflow)</text>
</svg>
